<svg width="38" height="40" viewBox="0 0 38 40" fill="none" xmlns="http://www.w3.org/2000/svg">
<path d="M17.4023 0.872557C18.398 0.328759 19.602 0.328759 20.5977 0.872558L23.9694 2.71396C24.3327 2.91234 24.7297 3.04133 25.1401 3.09435L28.9503 3.58647C30.0755 3.7318 31.0495 4.43946 31.5354 5.46468L33.1808 8.93625C33.3581 9.31025 33.6035 9.64796 33.9044 9.93212L36.6976 12.5698C37.5224 13.3487 37.8945 14.4938 37.685 15.6088L36.9756 19.3845C36.8992 19.7913 36.8992 20.2087 36.9756 20.6155L37.685 24.3912C37.8945 25.5062 37.5224 26.6513 36.6976 27.4302L33.9044 30.0679C33.6035 30.352 33.3581 30.6898 33.1808 31.0637L31.5354 34.5353C31.0495 35.5605 30.0755 36.2682 28.9503 36.4135L25.1401 36.9057C24.7297 36.9587 24.3327 37.0877 23.9694 37.286L20.5977 39.1274C19.602 39.6712 18.398 39.6712 17.4023 39.1274L14.0306 37.286C13.6673 37.0877 13.2703 36.9587 12.8599 36.9057L9.04974 36.4135C7.92454 36.2682 6.95053 35.5605 6.4646 34.5353L4.81918 31.0637C4.64191 30.6898 4.39655 30.352 4.09564 30.0679L1.30244 27.4302C0.477559 26.6513 0.105518 25.5062 0.315004 24.3912L1.02437 20.6155C1.10079 20.2087 1.10079 19.7913 1.02437 19.3845L0.315004 15.6088C0.105518 14.4938 0.477559 13.3487 1.30244 12.5698L4.09564 9.93212C4.39655 9.64796 4.64191 9.31025 4.81918 8.93625L6.4646 5.46468C6.95053 4.43946 7.92454 3.7318 9.04974 3.58647L12.8599 3.09435C13.2703 3.04133 13.6673 2.91234 14.0306 2.71396L17.4023 0.872557Z" fill="#1B1A1F"/>
</svg>
